<svg id="Capa_1" enable-background="new 0 0 512 512" height="512" viewBox="0 0 512 512" width="512" xmlns="http://www.w3.org/2000/svg"><g><path d="m372 15c0-8.284-6.716-15-15-15h-342c-8.284 0-15 6.716-15 15v170c0 8.284 6.716 15 15 15h342c8.284 0 15-6.716 15-15z" fill="#51489a"/><g><path d="m357 0h-171v200h171c8.284 0 15-6.716 15-15v-170c0-8.284-6.716-15-15-15z" fill="#39326c"/></g><g><g><path d="m51.001 140.384c-5.522 0-10-4.478-10-10v-59.888c0-4.376 2.846-8.244 7.023-9.547 4.181-1.301 8.719.264 11.205 3.864l23.53 34.073-.275-28.406c-.053-5.522 4.381-10.043 9.903-10.097h.099c5.479 0 9.944 4.413 9.998 9.903l.562 57.979c0 5.258-2.988 9.525-7.613 10.969-4.486 1.397-9.373-.378-12.167-4.42l-22.265-32.24v27.81c0 5.522-4.478 10-10 10z" fill="#ffe278"/></g><path d="m151.229 120h-15.281v-10h13.417c5.522 0 10-4.478 10-10s-4.478-10-10-10h-13.417v-10h15.281c5.522 0 10-4.478 10-10s-4.478-10-10-10h-25.281c-5.522 0-10 4.478-10 10v60c0 5.522 4.478 10 10 10h25.281c5.522 0 10-4.478 10-10s-4.477-10-10-10z" fill="#ffe278"/><path d="m311.617 91.476c-6.912-2.55-13.379-5.317-15.818-6.38-.334-.367-.461-.845-.378-1.425.178-1.235 1.278-2.244 3.02-2.769 7.187-2.173 14.098 3.272 14.216 3.366.001.001.002.002.003.002 0 0 .002.002.002.002 1.728 1.425 3.942 2.28 6.356 2.28 5.523 0 10-4.477 10-10 0-3.072-1.388-5.817-3.567-7.651l.002-.003c-.016-.014-.034-.028-.051-.042-.018-.015-.036-.03-.054-.044-5.595-4.652-18.656-11.285-32.677-7.061-9.225 2.779-15.756 10.089-17.047 19.076-1.219 8.493 2.465 16.666 9.615 21.328.442.288.906.54 1.388.756.351.156 8.687 3.867 18.068 7.327 3.378 1.246 6.627 3.394 6.271 5.384-.356 1.996-3.342 4.761-8.021 4.761-5.27 0-10.315-2.097-13.498-5.608-3.708-4.094-10.032-4.403-14.125-.695s-4.404 10.032-.695 14.125c7.013 7.739 17.335 12.179 28.318 12.179 13.857 0 25.511-8.936 27.709-21.246 1.673-9.362-2.451-21.545-19.037-27.662zm1.035-7.212-.068-.057.002-.003c.023.019.043.041.066.06z" fill="#ffc178"/><g><path d="m236.116 140.385c-4.799 0-9.091-3.028-10.699-7.555-.047-.134-.092-.268-.133-.402l-8.655-28.096-8.695 28.091c-.026.087-.055.174-.084.26-1.554 4.573-5.843 7.668-10.673 7.701-.026 0-.053.001-.079.001-4.798 0-9.091-3.028-10.699-7.555-.162-.459-.292-.929-.386-1.406l-11.689-59.1c-1.072-5.418 2.451-10.679 7.869-11.75 5.426-1.073 10.679 2.452 11.75 7.869l5.014 25.345 7.913-25.565c.875-3.967 4.115-7.101 8.276-7.728 4.871-.735 9.588 2.215 11.045 6.944l8.114 26.34 5.023-25.237c1.078-5.416 6.342-8.932 11.76-7.855 5.416 1.078 8.934 6.343 7.855 11.76l-11.737 58.972c-.085.429-.198.851-.339 1.265-1.554 4.573-5.843 7.668-10.673 7.701-.026-.001-.052 0-.078 0z" fill="#ffe278"/></g><g><path d="m251.088 60.687c-5.418-1.076-10.682 2.439-11.76 7.855l-5.023 25.237-8.114-26.34c-1.457-4.729-6.174-7.68-11.045-6.944-4.161.627-7.401 3.761-8.276 7.728l-7.913 25.565-5.014-25.345c-.815-4.121-4.052-7.141-7.942-7.88v70.797l.013.064c.094.478.224.947.386 1.406 1.608 4.526 5.901 7.555 10.699 7.555.026 0 .053-.001.079-.001 4.83-.033 9.119-3.128 10.673-7.701.029-.086.058-.173.084-.26l8.695-28.091 8.655 28.096c.041.135.086.269.133.402 1.608 4.526 5.9 7.555 10.699 7.555.025 0 .052-.001.078-.001 4.83-.033 9.119-3.128 10.673-7.701.141-.414.254-.836.339-1.265l11.737-58.972c1.077-5.417-2.44-10.681-7.856-11.759z" fill="#ffc178"/></g><g><path d="m372 467v-282h-372v282c0 24.813 20.187 45 45 45h362z" fill="#f9f1f1"/></g><g><path d="m372 467v-282h-186v327h221z" fill="#e2dff4"/></g><path d="m306 251c-8.284 0-15 6.716-15 15v95h-30v-65c0-8.284-6.716-15-15-15s-15 6.716-15 15v65h-30v-115c0-8.284-6.716-15-15-15s-15 6.716-15 15v115h-30v-85c0-8.284-6.716-15-15-15s-15 6.716-15 15v85h-30v-115c0-8.284-6.716-15-15-15s-15 6.716-15 15v130c0 8.284 6.716 15 15 15h240c8.284 0 15-6.716 15-15v-110c0-8.284-6.716-15-15-15z" fill="#9ddff6"/><g><path d="m306 251c-8.284 0-15 6.716-15 15v95h-30v-65c0-8.284-6.716-15-15-15s-15 6.716-15 15v65h-30v-115c0-8.284-6.716-15-15-15v160h120c8.284 0 15-6.716 15-15v-110c0-8.284-6.716-15-15-15z" fill="#8bb9ff"/></g><g><path d="m306 451h-240c-8.284 0-15-6.716-15-15s6.716-15 15-15h240c8.284 0 15 6.716 15 15s-6.716 15-15 15z" fill="#51489a"/></g><g><path d="m306 421h-120v30h120c8.284 0 15-6.716 15-15s-6.716-15-15-15z" fill="#39326c"/></g><path d="m477 242h-105v235c0 19.33 15.67 35 35 35 19.33 0 35-15.67 35-35v-65z" fill="#bebcdd"/><path d="m442 277v135h55c8.284 0 15-6.716 15-15v-120c0-19.33-15.67-35-35-35-19.33 0-35 15.67-35 35z" fill="#e2dff4"/></g></g></svg>