<?xml version="1.0"?>
<svg xmlns="http://www.w3.org/2000/svg" id="filled_outline" data-name="filled outline" viewBox="0 0 512 512" width="512" height="512"><path d="M48,72H464V472a16,16,0,0,1-16,16H64a16,16,0,0,1-16-16V72" style="fill:#8760e6"/><rect x="96" y="120" width="320" height="184" style="fill:#7148db"/><path d="M360,304H152l8.66992-31.78,7.29-26.74A39.9967,39.9967,0,0,1,206.55005,216H305.45A39.9967,39.9967,0,0,1,344.04,245.48l7.3,26.78Z" style="fill:#02c26a"/><polygon points="206.59 287.53 200 304 152 304 160.67 272.22 206.59 287.53" style="fill:#ffceb6"/><polygon points="360 304 312 304 312 288 351.34 272.26 360 304" style="fill:#ffceb6"/><path d="M96,352.97057v0A16.97054,16.97054,0,0,1,112.97055,336h0a16.97054,16.97054,0,0,1,12,4.97056L128,344l3.02944-3.02944a16.97054,16.97054,0,0,1,12-4.97056h0A16.97054,16.97054,0,0,1,160,352.97055v0a16.97054,16.97054,0,0,1-4.97056,12L128,392l-27.02944-27.02944A16.97054,16.97054,0,0,1,96,352.97057Z" style="fill:#f5714f"/><circle cx="128" cy="440" r="16" style="fill:#b89dfa"/><path d="M272,200v28a20.26518,20.26518,0,0,1-.3999,4A20.0023,20.0023,0,0,1,232,228V200Z" style="fill:#ffceb6"/><path d="M256,224h0a24,24,0,0,1-24-24v-8l16-16h32v24A24,24,0,0,1,256,224Z" style="fill:#ffceb6"/><path d="M280,176l6.63344-13.26688A12.94424,12.94424,0,0,0,288,156.94427h0A12.94426,12.94426,0,0,0,275.05574,144H256a24,24,0,0,0-24,24v24l16-16Z" style="fill:#c47220"/><path d="M48,72V40A16,16,0,0,1,64,24H448a16,16,0,0,1,16,16V72Z" style="fill:#a88af2"/><path d="M448,496a24.0275,24.0275,0,0,0,24-24V40a24.0275,24.0275,0,0,0-24-24H64A24.0275,24.0275,0,0,0,40,40V472a24.0275,24.0275,0,0,0,24,24ZM64,32H448a8.00917,8.00917,0,0,1,8,8V64H56V40A8.00917,8.00917,0,0,1,64,32ZM56,472V80H456V472a8.00917,8.00917,0,0,1-8,8H64A8.00917,8.00917,0,0,1,56,472Z"/><circle cx="80" cy="48" r="8"/><circle cx="104" cy="48" r="8"/><circle cx="128" cy="48" r="8"/><path d="M96,312H416a8.00039,8.00039,0,0,0,8-8V120a8.00039,8.00039,0,0,0-8-8H96a8.00039,8.00039,0,0,0-8,8V304A8.00039,8.00039,0,0,0,96,312Zm144-84.30518a31.87842,31.87842,0,0,0,23.5835,3.38965A11.99248,11.99248,0,0,1,240,228ZM256,216a16.01833,16.01833,0,0,1-16-16v-4.68652L251.31348,184H272v16A16.01833,16.01833,0,0,1,256,216Zm23.47852-56.84473L275.05591,168H248a8.00235,8.00235,0,0,0-5.65723,2.34277L240,172.68555V168a16.01833,16.01833,0,0,1,16-16h19.05566a4.945,4.945,0,0,1,4.42286,7.15527ZM252,256a28.03146,28.03146,0,0,0,28-28v-4h25.44824a32.07127,32.07127,0,0,1,30.873,23.58008l5.42822,19.904L320,276.18408V256H304v40H211.81592l11.61181-29.0293-14.85546-5.9414-6.60987,16.5249-31.58691-10.52881,5.30322-19.44531A32.07127,32.07127,0,0,1,206.55176,224H224v4A28.03146,28.03146,0,0,0,252,256Zm68,37.416,25.98682-10.39478L349.52637,296H320ZM166.15894,282.48633l29.85034,9.95019L194.584,296H162.47363ZM104,128H408V296H366.10986l-14.353-52.62891A48.10521,48.10521,0,0,0,305.44824,208H286.9873A31.95275,31.95275,0,0,0,288,200V177.88867l5.79-11.5791A20.94517,20.94517,0,0,0,275.05566,136H256a32.03667,32.03667,0,0,0-32,32v32a31.95275,31.95275,0,0,0,1.0127,8H206.55176a48.10521,48.10521,0,0,0-46.3086,35.37109L145.89014,296H104Z"/><path d="M122.34277,397.65723a8.00181,8.00181,0,0,0,11.31446,0l27.02929-27.0293A24.97377,24.97377,0,0,0,128,333.02344a24.97338,24.97338,0,0,0-32.68652,37.60449ZM112.9707,344a8.9108,8.9108,0,0,1,6.34278,2.62793l3.02929,3.0293a8.003,8.003,0,0,0,11.31446,0l3.02929-3.0293a8.97,8.97,0,1,1,12.68555,12.68555L128,380.68652l-21.37207-21.373A8.97,8.97,0,0,1,112.9707,344Z"/><circle cx="184" cy="376" r="8"/><circle cx="208" cy="376" r="8"/><circle cx="232" cy="376" r="8"/><path d="M128,416a24,24,0,1,0,24,24A24.0275,24.0275,0,0,0,128,416Zm0,32a8,8,0,1,1,8-8A8.00917,8.00917,0,0,1,128,448Z"/><rect x="176" y="432" width="16" height="16"/><rect x="208" y="432" width="80" height="16"/></svg>
